<?xml version="1.0" encoding="utf-8"?>
<!-- Generator: Adobe Illustrator 23.0.0, SVG Export Plug-In . SVG Version: 6.00 Build 0)  -->
<svg version="1.1" id="svg" xmlns="http://www.w3.org/2000/svg" xmlns:xlink="http://www.w3.org/1999/xlink" x="0px" y="0px"
	 viewBox="0 0 400 126.3" style="enable-background:new 0 0 400 126.3;" xml:space="preserve">
<style type="text/css">
	.st0{fill:#FFFFFF;}
	.st1{fill:#007893;}
	.st2{enable-background:new    ;}
</style>
<g>
	<g>
		<path class="st0" d="M42.4,23.8c22-0.1,40.8,17.7,40.8,40.8c0,22.6-18,40.3-40.1,40.7c-23.2,0.3-41.7-18.2-41.6-41
			C1.5,41.3,20.4,23.6,42.4,23.8z M55.9,74.5c0.2,0,0.3,0,0.5-0.1c1.8-0.1,2.4-0.6,2.7-2.3c0.6-3,1.1-6.1,1.7-9.2
			c0.9-4.8,1.8-9.6,2.7-14.5c0.1-0.4,0.3-0.6,0.7-0.8c1.8-0.6,3.5-1.3,5.2-1.9c1.3-0.5,1.9-1.7,1.5-2.9s-1.6-1.8-3-1.3
			c-2.2,0.8-4.4,1.6-6.6,2.4c-1.1,0.4-1.8,1.3-2,2.6c-0.4,2.5-0.9,4.9-1.4,7.4C57,58.9,56,64,55.1,69c-0.1,0.6-0.3,0.9-1,0.9
			c-8.1,0-16.2,0-24.3,0c-0.6,0-0.9-0.2-1-0.8c-1.2-3.8-2.5-7.7-3.7-11.5c-0.5-1.5-1-3-1.5-4.5c0.7-0.1,1.3-0.1,1.9-0.2
			c2.9-0.1,5.8-0.3,8.7-0.4c3.8-0.2,7.5-0.4,11.3-0.6c2.3-0.1,4.5-0.2,6.8-0.3c1.3-0.1,2.2-1.1,2.1-2.4c-0.1-1.2-1-2.1-2.3-2.1
			c-0.2,0-0.5,0-0.7,0c-5,0.3-9.9,0.5-14.9,0.8c-3.9,0.2-7.8,0.3-11.6,0.5c-1.4,0.1-2.7,0.2-4.1,0.2c-1.7,0-2.8,1.7-2.2,3.4
			c1,2.9,1.9,5.9,2.9,8.9c1.3,4,2.5,7.9,3.8,11.9c0.4,1.1,1.2,1.7,2.4,1.7c4.1,0,8.3,0,12.4,0c3.7,0,7.4,0,11.1,0
			c0.3,0,0.7,0.1,0.8,0.3c0.4,0.9,0.7,1.8,1,2.7h-1.1h-24c-0.3,0-0.6,0-0.9,0c-1.1,0.1-1.8,0.9-1.8,2s0.8,1.8,1.9,1.8
			c0.8,0,1.7,0,2.6,0c-2.8,2.7-3.2,5.5-1.2,7.9c1.8,2.1,5.1,2.5,7.3,0.8c1.5-1.1,2.2-2.6,2.1-4.4c-0.1-1.8-1-3.1-2.4-4h12.3
			c-2.5,2.6-2.6,5.5-0.4,7.7c2,2,5.3,2,7.4,0.1c0.9-0.8,1.5-1.9,1.6-3.1c0.2-1.9-0.5-3.5-2-4.8c0.2,0,0.3,0,0.4,0
			c2.3,0,3-1.1,2.3-3.3C56.7,76.9,56.3,75.7,55.9,74.5z M30.7,58c3.1-0.2,6.3-0.3,9.4-0.5c1.2-0.1,2.1-0.7,2.1-1.7S41.3,54,40,54.1
			c-2.5,0.1-4.9,0.2-7.4,0.3c-1.1,0.1-2.2,0.1-3.3,0.2c-0.9,0.1-1.5,1-1.4,1.8s0.8,1.5,1.7,1.5C30,58,30.4,58,30.7,58z"/>
	</g>
	<g>
		<path class="st1" d="M55.9,74.5c0.4,1.2,0.8,2.4,1.2,3.5c0.8,2.2,0.1,3.2-2.3,3.3c-0.1,0-0.2,0-0.4,0c1.5,1.3,2.2,2.9,2,4.8
			c-0.1,1.2-0.7,2.3-1.6,3.1c-2.1,2-5.4,1.9-7.4-0.1c-2.2-2.2-2.1-5.1,0.4-7.7H35.5c1.4,0.9,2.4,2.2,2.4,4c0.1,1.8-0.7,3.3-2.1,4.4
			c-2.2,1.7-5.5,1.3-7.3-0.8c-2-2.4-1.7-5.2,1.2-7.9c-0.9,0-1.8,0-2.6,0c-1.1,0-1.9-0.8-1.9-1.8s0.7-1.9,1.8-2c0.3,0,0.6,0,0.9,0h24
			H53c-0.4-1-0.6-1.9-1-2.7c-0.1-0.2-0.5-0.3-0.8-0.3c-3.7,0-7.4,0-11.1,0c-4.1,0-8.3,0-12.4,0c-1.2,0-2-0.6-2.4-1.7
			c-1.3-4-2.5-7.9-3.8-11.9c-0.9-3-1.8-5.9-2.9-8.9c-0.6-1.7,0.6-3.4,2.2-3.4c1.4,0,2.7-0.2,4.1-0.2c3.9-0.2,7.8-0.3,11.6-0.5
			c5-0.2,9.9-0.5,14.9-0.8c0.2,0,0.5,0,0.7,0c1.3,0,2.3,0.9,2.3,2.1c0.1,1.3-0.8,2.3-2.1,2.4c-2.3,0.1-4.5,0.2-6.8,0.3
			c-3.8,0.2-7.5,0.4-11.3,0.6c-2.9,0.1-5.8,0.3-8.7,0.4c-0.6,0-1.2,0.1-1.9,0.2c0.5,1.6,1,3.1,1.5,4.5c1.2,3.8,2.5,7.7,3.7,11.5
			c0.2,0.6,0.4,0.8,1,0.8c8.1,0,16.2,0,24.3,0c0.7,0,0.9-0.3,1-0.9c0.9-5,1.8-10.1,2.8-15.1c0.5-2.5,0.9-4.9,1.4-7.4
			c0.2-1.2,0.9-2.1,2-2.6c2.2-0.8,4.4-1.6,6.6-2.4c1.3-0.5,2.5,0.1,3,1.3c0.4,1.2-0.2,2.4-1.5,2.9c-1.7,0.7-3.5,1.3-5.2,1.9
			c-0.4,0.1-0.6,0.3-0.7,0.8c-0.9,4.8-1.8,9.7-2.7,14.5c-0.6,3.1-1.1,6.1-1.7,9.2c-0.3,1.7-0.9,2.2-2.7,2.3
			C56.2,74.5,56.1,74.5,55.9,74.5z M51.1,87.5c1.2,0,2.1-0.8,2.1-1.9s-0.9-2-2-2s-2.1,0.9-2.1,2C49.1,86.6,50,87.5,51.1,87.5z
			 M32.6,87.8c1.2,0,2.1-0.8,2.1-1.9s-0.9-1.9-2-2c-1.1,0-2.1,0.9-2.1,2C30.5,86.9,31.4,87.8,32.6,87.8z"/>
	</g>
	<g>
		<path class="st0" d="M30.7,58c-0.4,0-0.7,0-1.1,0c-0.9,0-1.6-0.7-1.7-1.5s0.5-1.7,1.4-1.8c1.1-0.2,2.2-0.2,3.3-0.2
			c2.5-0.1,4.9-0.2,7.4-0.3c1.3-0.1,2.2,0.7,2.2,1.7s-0.8,1.7-2.1,1.7C37,57.7,33.9,57.8,30.7,58z"/>
	</g>
	<g>
		<path class="st0" d="M51.1,87.5c-1.1,0-2-0.9-2-1.9c0-1.1,1-2,2.1-2s2,0.9,2,2C53.2,86.7,52.3,87.5,51.1,87.5z"/>
	</g>
	<g>
		<path class="st0" d="M32.6,87.8c-1.1,0-2-0.9-2-1.9c0-1.1,1-2,2.1-2s2,0.9,2,2C34.6,87,33.7,87.8,32.6,87.8z"/>
	</g>
	<g class="st2">
		<path class="st0" d="M115.7,77.6c0.4-0.1,1.1-0.2,1.9-0.3c0.8-0.1,1.6-0.2,2.3-0.2V52.2h-6.5c0,0.5,0,1-0.1,1.5
			c0,0.5-0.1,1-0.1,1.5c0,0.5-0.1,0.9-0.1,1.4s-0.1,0.7-0.1,0.9h-5.5V46.7H140v10.8h-5.5c0-0.2-0.1-0.5-0.1-0.9s-0.1-0.9-0.2-1.4
			s-0.1-1-0.1-1.5c0-0.5-0.1-1-0.1-1.5h-6.6v24.9c0.3,0,0.7,0,1.1,0.1c0.4,0,0.8,0.1,1.2,0.1c0.4,0,0.8,0.1,1.1,0.2
			c0.3,0.1,0.6,0.1,0.8,0.2v4.5h-15.9V77.6z"/>
		<path class="st0" d="M142.1,77.6c0.4-0.1,1-0.2,1.8-0.3c0.8-0.1,1.5-0.2,2.2-0.2V61c-0.8-0.1-1.5-0.1-2.2-0.2
			c-0.7,0-1.3-0.1-1.7-0.1v-4.5c0.9-0.1,2.4-0.2,4.4-0.3c2-0.1,4.3-0.1,6.9-0.1l-0.3,4.2v17.1c0.6,0,1.3,0.1,2,0.2
			c0.7,0.1,1.3,0.2,1.6,0.3v4.5h-14.6V77.6z M149.5,52.6c-1.2,0-2.3-0.4-3.1-1.3c-0.8-0.9-1.2-1.8-1.2-3s0.4-2.1,1.2-2.9
			c0.8-0.8,1.9-1.2,3.1-1.2c1.2,0,2.3,0.4,3.1,1.2c0.8,0.8,1.2,1.8,1.2,2.9s-0.4,2.1-1.2,3C151.8,52.2,150.7,52.6,149.5,52.6z"/>
		<path class="st0" d="M172,82.7c-4.3,0-7.6-1.2-9.9-3.5c-2.3-2.4-3.5-5.6-3.5-9.6c0-2.2,0.3-4.2,1-5.9c0.6-1.7,1.5-3.2,2.7-4.4
			c1.2-1.2,2.5-2.1,4.1-2.7c1.6-0.6,3.4-1,5.4-1c1.8,0,3.4,0.3,4.8,0.9c1.4,0.6,2.5,1.4,3.4,2.4c0.9,1,1.6,2.3,2.1,3.7
			c0.5,1.5,0.7,3.1,0.7,4.8c0,0.4,0,0.9-0.1,1.6c0,0.7-0.1,1.2-0.1,1.6h-16.4c0.1,2.2,0.7,3.9,1.9,5.1c1.2,1.3,2.8,1.9,5,1.9
			c1.6,0,2.9-0.2,4-0.6c1.1-0.4,1.9-0.8,2.6-1.2l2.2,4.4c-0.4,0.2-0.9,0.5-1.5,0.8c-0.6,0.3-1.3,0.6-2.1,0.8s-1.7,0.5-2.7,0.6
			C174.4,82.6,173.3,82.7,172,82.7z M175.8,66.1c0-1.6-0.4-3-1-4.1s-1.8-1.7-3.4-1.7c-1.6,0-2.8,0.5-3.7,1.5c-0.9,1-1.4,2.4-1.6,4.3
			H175.8z"/>
		<path class="st0" d="M185.7,77.6c0.4-0.1,1-0.2,1.7-0.3c0.8-0.1,1.5-0.2,2.2-0.2V61c-0.8-0.1-1.5-0.1-2.2-0.2
			c-0.7,0-1.2-0.1-1.7-0.1v-4.5c0.9-0.1,2.4-0.2,4.3-0.3c2-0.1,4.2-0.1,6.6-0.1l-0.2,3.9h0.1c0.9-1.2,1.9-2.2,3.2-3
			c1.3-0.8,2.9-1.2,4.9-1.2c1.4,0,2.6,0.2,3.6,0.6c1,0.4,1.8,1,2.4,1.8s1.1,1.6,1.4,2.7c0.3,1,0.4,2.1,0.4,3.3v13.2
			c0.6,0,1.3,0.1,2,0.2c0.7,0.1,1.3,0.2,1.6,0.3v4.5h-10.7V65.2c0-1.3-0.3-2.3-0.8-2.9c-0.5-0.7-1.4-1-2.7-1c-1.2,0-2.2,0.4-3.1,1.1
			c-0.9,0.7-1.6,1.4-2.2,2.2v12.7c0.7,0,1.3,0.1,2,0.2c0.7,0.1,1.1,0.2,1.5,0.3v4.5h-14.4V77.6z"/>
		<path class="st0" d="M228.6,82.7c-3.2,0-5.8-1.1-7.7-3.4c-1.9-2.3-2.8-5.6-2.8-9.9c0-2.1,0.3-3.9,0.9-5.6c0.6-1.7,1.4-3.2,2.4-4.4
			c1-1.2,2.3-2.2,3.7-2.8c1.4-0.7,3-1,4.6-1c1.4,0,2.6,0.2,3.5,0.6c0.9,0.4,1.7,0.8,2.3,1.3h0.1v-8.6c-0.7-0.1-1.5-0.1-2.1-0.2
			c-0.7-0.1-1.2-0.1-1.7-0.1v-4.5c0.9-0.1,2.4-0.2,4.4-0.3c2-0.1,4.3-0.1,6.8-0.1l-0.3,4.3v28.3c0,0.4,0,0.8,0.1,1.2
			c0.7,0.1,1.4,0.1,2,0.2c0.6,0,1.2,0.1,1.5,0.1v4.5c-0.9,0.1-2.2,0.1-3.9,0.2c-1.8,0.1-3.7,0.1-5.9,0.1c-0.1-0.1-0.1-0.4-0.2-0.6
			c-0.1-0.3-0.1-0.6-0.2-0.9c-0.1-0.3-0.1-0.6-0.1-0.9s-0.1-0.6-0.1-0.8H236c-0.9,1-1.9,1.9-3.1,2.6S230.3,82.7,228.6,82.7z
			 M231,77.3c1.1,0,2-0.3,2.8-0.8c0.8-0.5,1.4-1.1,1.9-1.8V62.5c-0.5-0.5-1.1-0.9-1.8-1.2c-0.7-0.3-1.6-0.4-2.5-0.4
			c-1.8,0-3.2,0.7-4.2,2.2c-1,1.5-1.5,3.5-1.5,6.1c0,2.4,0.4,4.4,1.3,5.8C227.9,76.6,229.2,77.3,231,77.3z"/>
		<path class="st0" d="M256.5,82.7c-1.1,0-2.1-0.2-3.1-0.5c-1-0.3-1.8-0.8-2.5-1.4c-0.7-0.6-1.3-1.4-1.7-2.3
			c-0.4-0.9-0.6-1.9-0.6-3.1c0-1.7,0.4-3.1,1.1-4.2c0.8-1.2,1.8-2.1,3.1-2.8s2.8-1.2,4.4-1.6c1.7-0.3,3.4-0.5,5.2-0.5h0.9v-1.8
			c0-1.2-0.3-2.2-1-2.7c-0.6-0.6-1.8-0.9-3.3-0.9c-1.4,0-2.6,0.3-3.8,0.8c-1.2,0.5-2.1,1.1-2.9,1.7l-2.9-4.1c1-1,2.4-1.8,4.1-2.6
			s3.8-1.1,6.3-1.1c3.6,0,6.2,0.7,8,2.2c1.7,1.5,2.6,3.9,2.6,7.4v11c0,0.4,0,0.8,0.1,1.2c0.7,0.1,1.3,0.1,1.9,0.2
			c0.6,0,1.1,0.1,1.5,0.1v4.5c-0.9,0.1-2.1,0.1-3.8,0.2c-1.7,0.1-3.7,0.1-5.9,0.1c-0.1-0.3-0.2-0.8-0.3-1.4
			c-0.1-0.6-0.1-1.2-0.2-1.8h-0.1c-0.6,0.9-1.5,1.6-2.7,2.4S258.2,82.7,256.5,82.7z M258.6,77.7c1.1,0,2.1-0.2,2.8-0.7
			s1.4-1,1.9-1.6v-4.9h-0.9c-2.1,0-3.8,0.3-5.1,0.9s-1.9,1.7-1.9,3.3c0,1,0.3,1.8,1,2.2C257.1,77.5,257.8,77.7,258.6,77.7z"/>
		<path class="st0" d="M288,77.6c0.4-0.1,1.1-0.2,1.9-0.3c0.9-0.1,1.6-0.2,2.3-0.2V51.6c-0.7,0-1.4-0.1-2.3-0.2
			c-0.9-0.1-1.5-0.2-1.9-0.3v-4.5h16.5c1.6,0,3.2,0.1,4.7,0.4c1.5,0.3,2.8,0.8,3.9,1.5s2,1.6,2.7,2.7c0.7,1.1,1,2.5,1,4.2
			c0,2.3-0.6,4.2-1.8,5.4c-1.2,1.3-2.8,2.2-4.7,2.7v0.1c1.1,0.2,2.1,0.5,3,0.9c1,0.4,1.8,1,2.5,1.7c0.7,0.7,1.3,1.5,1.7,2.5
			c0.4,1,0.7,2.1,0.7,3.4c0,1.8-0.3,3.3-1,4.6c-0.7,1.2-1.6,2.3-2.9,3.1c-1.2,0.8-2.7,1.4-4.3,1.7c-1.7,0.4-3.5,0.5-5.5,0.5H288
			V77.6z M299.7,61.5h3.9c2,0,3.5-0.4,4.4-1.2c0.9-0.8,1.4-2,1.4-3.6c0-3.1-1.9-4.6-5.6-4.6h-4V61.5z M299.7,76.7h4.4
			c2.2,0,3.9-0.4,4.9-1.2c1.1-0.8,1.6-2.1,1.6-3.9c0-1.7-0.5-3-1.5-3.9c-1-0.9-2.6-1.3-4.8-1.3h-4.6V76.7z"/>
		<path class="st0" d="M321.5,77.6c0.4-0.1,1.1-0.2,1.9-0.3c0.9-0.1,1.6-0.2,2.3-0.2V51.6c-0.7,0-1.4-0.1-2.3-0.2
			c-0.9-0.1-1.5-0.2-1.9-0.3v-4.5h11.3l13.6,18.6c0.5,0.6,0.9,1.3,1.4,1.9c0.4,0.6,0.8,1.2,1.2,1.8c0.4,0.6,0.7,1.1,0.9,1.5
			c0.3,0.4,0.5,0.7,0.6,0.9h0.1c-0.1-0.4-0.1-1.1-0.2-2.2c0-1.1-0.1-2.3-0.1-3.7V51.6c-0.7,0-1.5-0.1-2.3-0.2
			c-0.8-0.1-1.4-0.2-1.8-0.3v-4.5h14.5v4.5c-0.4,0.1-1,0.2-1.8,0.3c-0.8,0.1-1.5,0.2-2.2,0.2v30.5h-6.4l-14.6-19.9
			c-0.4-0.6-0.8-1.2-1.2-1.8c-0.4-0.6-0.8-1.2-1.1-1.7c-0.3-0.5-0.6-1-0.9-1.4c-0.2-0.4-0.4-0.7-0.5-0.9h-0.1c0,0.4,0.1,1,0.1,2
			c0,1,0.1,2,0.1,3v15.5c0.7,0,1.5,0.1,2.3,0.2c0.8,0.1,1.5,0.2,1.9,0.3v4.5h-14.7V77.6z"/>
		<path class="st0" d="M360.2,77.6c0.3-0.1,0.8-0.2,1.4-0.2s1.2-0.2,1.8-0.2l12.3-30.5h6.6l12,30.5c0.6,0,1.2,0.1,1.9,0.2
			s1.1,0.2,1.4,0.2v4.5h-14.1v-4.5c0.3-0.1,0.7-0.2,1.2-0.2c0.5-0.1,1.1-0.2,1.7-0.2l-1.6-4.5h-13l-1.7,4.5c0.6,0,1.2,0.1,1.8,0.2
			s1,0.2,1.3,0.2v4.5h-12.9V77.6z M382.9,67.9l-2.5-7c-0.5-1.5-1-2.7-1.3-3.8c-0.3-1.1-0.6-2-0.8-2.7h-0.1c-0.2,0.6-0.5,1.5-0.9,2.7
			c-0.4,1.2-0.8,2.4-1.3,3.8l-2.6,7H382.9z"/>
	</g>
</g>
<g>
	<g>
		<path class="st1" d="M43.1,54.3c1.4,0,2.5,0.7,2.5,2.2c0,1.6-0.9,2.2-2.4,2.3c-4.2,0.2-8.3,0.4-12.5,0.6c-1.6,0.1-2.9-0.4-3-2.1
			c-0.1-1.8,1.2-2.5,2.9-2.5C33.6,54.7,41.9,54.3,43.1,54.3z"/>
	</g>
</g>
</svg>
